HIERARCHY
ROOT Hips
{
	OFFSET -0.001795 -0.223333 0.028219
	CHANNELS 6 Xposition Yposition Zposition Zrotation Yrotation Xrotation 
	JOINT LeftUpLeg
	{
		OFFSET 0.069520 -0.091406 -0.006815
		CHANNELS 3 Zrotation Yrotation Xrotation
		JOINT LeftLeg
		{
			OFFSET 0.034277 -0.375199 -0.004496
			CHANNELS 3 Zrotation Yrotation Xrotation
			JOINT LeftFoot
			{
				OFFSET -0.013596 -0.397961 -0.043693
				CHANNELS 3 Zrotation Yrotation Xrotation
				JOINT LeftToe
				{
					OFFSET 0.026358 -0.055791 0.119288
					CHANNELS 3 Zrotation Yrotation Xrotation
					End Site
					{
						OFFSET 0.000000 0.000000 0.000000
					}
				}
			}
		}
	}
	JOINT RightUpLeg
	{
		OFFSET -0.067670 -0.090522 -0.004320
		CHANNELS 3 Zrotation Yrotation Xrotation
		JOINT RightLeg
		{
			OFFSET -0.038290 -0.382569 -0.008850
			CHANNELS 3 Zrotation Yrotation Xrotation
			JOINT RightFoot
			{
				OFFSET 0.015774 -0.398415 -0.042312
				CHANNELS 3 Zrotation Yrotation Xrotation
				JOINT RightToe
				{
					OFFSET -0.025372 -0.048144 0.123348
					CHANNELS 3 Zrotation Yrotation Xrotation
					End Site
					{
						OFFSET 0.000000 0.000000 0.000000
					}
				}
			}
		}
	}
	JOINT Spine
	{
		OFFSET -0.002533 0.108963 -0.026696
		CHANNELS 3 Zrotation Yrotation Xrotation
		JOINT Spine1
		{
			OFFSET 0.005487 0.135180 0.001092
			CHANNELS 3 Zrotation Yrotation Xrotation
			JOINT Spine2
			{
				OFFSET 0.001457 0.052922 0.025425
				CHANNELS 3 Zrotation Yrotation Xrotation
				JOINT Neck
				{
					OFFSET -0.002778 0.213870 -0.042857
					CHANNELS 3 Zrotation Yrotation Xrotation
					JOINT Head
					{
						OFFSET 0.005152 0.064970 0.051349
						CHANNELS 3 Zrotation Yrotation Xrotation
						End Site
						{
							OFFSET 0.000000 0.000000 0.000000
						}
					}
				}
				JOINT LeftShoulder
				{
					OFFSET 0.078845 0.121749 -0.034090
					CHANNELS 3 Zrotation Yrotation Xrotation
					JOINT LeftArm
					{
						OFFSET 0.090977 0.030469 -0.008868
						CHANNELS 3 Zrotation Yrotation Xrotation
						JOINT LeftForeArm
						{
							OFFSET 0.259612 -0.012772 -0.027456
							CHANNELS 3 Zrotation Yrotation Xrotation
							JOINT LeftHand
							{
								OFFSET 0.249234 0.008986 -0.001171
								CHANNELS 3 Zrotation Yrotation Xrotation
								End Site
								{
									OFFSET 0.000000 0.000000 0.000000
								}
							}
						}
					}
				}
				JOINT RightShoulder
				{
					OFFSET -0.081759 0.118833 -0.038615
					CHANNELS 3 Zrotation Yrotation Xrotation
					JOINT RightArm
					{
						OFFSET -0.096012 0.032551 -0.009143
						CHANNELS 3 Zrotation Yrotation Xrotation
						JOINT RightForeArm
						{
							OFFSET -0.253742 -0.013329 -0.021401
							CHANNELS 3 Zrotation Yrotation Xrotation
							JOINT RightHand
							{
								OFFSET -0.255298 0.007772 -0.005559
								CHANNELS 3 Zrotation Yrotation Xrotation
								End Site
								{
									OFFSET 0.000000 0.000000 0.000000
								}
							}
						}
					}
				}
			}
		}
	}
}
MOTION
Frames: 17
Frame Time: 0.050000
1.763364 0.901467 1.232051 -177.766735 48.823531 -169.581630 11.265169 -19.187886 -42.109689 -16.817601 -9.768905 22.829130 40.365931 21.538891 33.545194 0.000000 0.000000 0.000000 -7.003765 -7.321794 -0.192969 -29.606701 -20.970401 43.419468 39.687085 17.704999 20.112973 0.000000 0.000000 0.000000 4.391786 -0.687649 -1.123478 -2.173518 0.833218 -29.243366 1.894629 22.029386 26.359089 9.771707 6.132062 -39.671557 0.000000 0.000000 0.000000 -4.182055 -27.552694 -44.170995 -73.075961 22.700533 -31.290771 -139.452327 -31.359878 102.553167 0.000000 0.000000 0.000000 14.811028 -12.017534 38.484408 133.040701 47.170996 117.928118 -130.580743 43.472116 -34.793506 0.000000 0.000000 0.000000 
1.786934 0.907887 1.186638 -179.333952 44.778130 -170.708149 5.061766 -18.176618 -38.958994 -15.558474 -10.897726 24.731748 37.409569 18.391743 27.159334 0.000000 0.000000 0.000000 -7.162200 -9.210131 -6.478920 -52.032727 -22.686566 59.202721 48.335364 17.278397 37.574740 0.000000 0.000000 0.000000 3.343995 -0.451871 0.571785 -2.006729 0.496972 -30.933491 1.255638 20.531840 26.999427 9.758430 5.831618 -40.309255 0.000000 0.000000 0.000000 -2.687231 -28.890884 -47.571963 -73.640747 25.534274 -33.794405 -138.850283 -29.537065 101.934643 0.000000 0.000000 0.000000 13.670819 -12.833236 42.276561 140.251136 47.801536 132.470185 -127.430103 40.582526 -29.043516 0.000000 0.000000 0.000000 
1.807812 0.915246 1.144005 -179.753143 41.106855 -171.953543 -0.230115 -15.597410 -34.556256 -14.359099 -12.293306 26.941117 35.325403 13.794958 22.233872 0.000000 0.000000 0.000000 -5.856533 -10.552431 -11.034341 -67.332163 -21.126439 66.745291 59.073941 19.635002 42.488161 0.000000 0.000000 0.000000 3.198298 -0.358829 2.331726 -1.943256 0.655805 -30.276396 0.470324 19.528528 25.936318 9.412409 5.308534 -40.382125 0.000000 0.000000 0.000000 -1.337065 -29.716486 -50.913735 -73.501355 27.724623 -35.262366 -138.898551 -28.302331 103.636684 0.000000 0.000000 0.000000 12.519390 -13.141299 45.842567 147.461563 48.598798 147.651498 -122.092879 37.975322 -24.705065 0.000000 0.000000 0.000000 
1.826201 0.921995 1.103386 -179.520187 38.357445 -172.767664 -4.264007 -12.611232 -30.253421 -10.767183 -12.578792 27.287963 32.866446 8.326323 17.042476 0.000000 0.000000 0.000000 -3.070058 -11.771386 -16.368699 -77.916347 -19.094899 68.547709 71.905327 22.251182 47.010501 0.000000 0.000000 0.000000 3.667473 -0.407098 3.802120 -1.906763 0.576272 -30.780554 1.079384 18.709682 26.367499 8.661807 3.915638 -38.469666 0.000000 0.000000 0.000000 -0.605694 -29.488828 -55.801955 -73.846644 32.440933 -37.909645 -137.743370 -25.939254 101.476535 0.000000 0.000000 0.000000 11.648980 -13.410362 49.765123 152.182851 49.730840 157.664547 -118.543453 36.628818 -23.212117 0.000000 0.000000 0.000000 
1.842301 0.927615 1.064704 -179.161725 34.176869 -173.438724 -7.678489 -9.242667 -25.503819 -5.904905 -12.483236 26.390249 32.197400 1.103262 10.791722 0.000000 0.000000 0.000000 0.039227 -14.647645 -22.273901 -79.329079 -19.032049 66.644639 74.888257 24.444991 45.111752 0.000000 0.000000 0.000000 4.397056 -0.547781 4.638299 -2.036740 0.653315 -29.844440 0.537643 17.596311 25.633108 7.068368 2.193361 -37.959669 0.000000 0.000000 0.000000 2.050748 -31.058492 -58.992523 -74.755284 34.522799 -42.121241 -136.665614 -25.210081 98.161676 0.000000 0.000000 0.000000 10.576517 -14.766177 54.299536 156.522011 50.318560 168.430086 -118.613968 33.288106 -18.564651 0.000000 0.000000 0.000000 
1.856319 0.930360 1.027939 -178.516389 30.571994 -173.693020 -9.774733 -6.170091 -21.037504 -0.640147 -11.190578 23.663540 33.763428 -5.676702 5.672899 0.000000 0.000000 0.000000 5.553844 -16.735627 -28.700700 -71.503071 -19.868763 58.955170 66.220083 27.979235 32.408237 0.000000 0.000000 0.000000 4.924453 -0.721868 5.694956 -2.409349 0.344035 -30.881503 1.571188 16.396396 26.735980 5.479092 -0.380141 -36.566653 0.000000 0.000000 0.000000 4.758359 -31.618942 -65.180171 -76.407153 39.304841 -48.106150 -134.838420 -22.284305 92.164659 0.000000 0.000000 0.000000 8.455837 -15.904987 60.714692 163.837250 50.563768 -173.116529 -116.379196 26.441862 -9.910363 0.000000 0.000000 0.000000 
1.869448 0.930914 0.991848 -178.192431 26.347670 -173.970470 -10.983304 -4.199845 -17.684404 1.626916 -10.834316 22.368291 36.463523 -10.267758 1.184651 0.000000 0.000000 0.000000 9.659214 -18.391782 -32.641051 -52.127813 -19.167074 46.057352 59.815944 22.974337 19.282819 0.000000 0.000000 0.000000 5.372752 -0.904655 6.476553 -2.390963 0.403061 -30.129145 1.384332 14.521324 26.813732 3.636899 -2.594361 -36.723988 0.000000 0.000000 0.000000 7.336089 -31.800947 -72.252516 -77.863756 43.414348 -53.100568 -132.955831 -19.853940 86.655170 0.000000 0.000000 0.000000 7.851832 -17.874063 67.088273 169.221174 51.127384 -162.347517 -117.378149 26.453286 -8.258906 0.000000 0.000000 0.000000 
1.882028 0.927756 0.955116 -177.941335 23.323881 -174.319529 -10.962314 -2.685980 -14.901966 2.082910 -11.158924 22.355803 39.910464 -12.169400 -2.434840 0.000000 0.000000 0.000000 13.483137 -19.290937 -35.596994 -35.321738 -15.077883 33.592217 56.429594 17.507158 11.021466 0.000000 0.000000 0.000000 5.738691 -1.036642 6.831571 -3.141024 0.080288 -29.925721 1.868508 13.364734 27.010518 2.726909 -4.937423 -35.597386 0.000000 0.000000 0.000000 10.694388 -32.117549 -77.965349 -80.776981 46.376237 -60.532925 -131.238849 -17.491826 80.389601 0.000000 0.000000 0.000000 5.280777 -18.913568 73.738708 175.762792 49.690330 -143.567299 -115.106653 18.033357 1.455261 0.000000 0.000000 0.000000 
1.894626 0.921122 0.916314 -177.735873 21.073176 -173.592796 -10.651429 -2.036228 -13.474512 2.211305 -11.459811 22.430433 42.583438 -13.027168 -6.591376 0.000000 0.000000 0.000000 15.429899 -19.307589 -36.515086 -19.201015 -8.896382 20.586216 60.494711 10.852391 6.696796 0.000000 0.000000 0.000000 6.144918 -1.103947 6.549292 -2.742120 0.238211 -29.445431 0.881483 12.597267 26.143442 3.295696 -4.795050 -36.211023 0.000000 0.000000 0.000000 12.094795 -32.593323 -82.325967 -80.654283 49.364431 -62.422007 -130.293274 -16.661614 76.390206 0.000000 0.000000 0.000000 4.302682 -19.927874 76.951669 176.764258 48.310126 -137.995892 -115.007711 16.715472 2.000926 0.000000 0.000000 0.000000 
1.907010 0.913231 0.874996 -177.925891 18.416240 -173.607951 -11.284516 -1.465523 -11.587150 0.394564 -13.699181 25.089375 44.957185 -11.328877 -7.904072 0.000000 0.000000 0.000000 17.664831 -19.285991 -37.470922 -15.177972 -7.690940 17.111149 62.679090 9.833846 4.714828 0.000000 0.000000 0.000000 7.214972 -1.484274 6.904242 -4.155957 -0.609164 -30.991996 2.011839 13.816997 27.440105 3.698073 -5.752437 -36.713497 0.000000 0.000000 0.000000 16.416255 -33.387560 -94.406640 -82.735690 59.078042 -72.192139 -129.948487 -10.944045 66.772841 0.000000 0.000000 0.000000 2.642278 -23.212624 88.556268 -173.631469 44.943813 -111.707775 -111.212354 9.151491 8.838725 0.000000 0.000000 0.000000 
1.919178 0.903632 0.831374 -178.670070 16.365650 -174.425425 -11.619754 -0.961750 -9.548557 -2.143130 -16.072473 28.080465 50.180499 -6.503885 -9.043736 0.000000 0.000000 0.000000 18.412781 -19.363248 -37.618639 -21.094936 -11.295106 23.015262 68.943015 8.017872 9.360606 0.000000 0.000000 0.000000 7.784834 -1.854636 7.677807 -4.632720 -0.832679 -30.087229 1.299906 14.823078 25.923251 3.973723 -8.770748 -34.355855 0.000000 0.000000 0.000000 19.734761 -32.914330 -103.115594 -83.904568 67.322633 -80.047151 -130.827991 -5.647944 56.310026 0.000000 0.000000 0.000000 0.252441 -23.218804 99.400486 -167.437453 40.883609 -94.712928 -111.276538 1.864116 17.378176 0.000000 0.000000 0.000000 
1.930818 0.896507 0.786404 -178.995826 13.783801 -174.532144 -10.573123 -0.829952 -9.247671 -9.065015 -20.330873 34.038078 59.342366 -4.197443 1.879458 0.000000 0.000000 0.000000 19.465271 -20.426254 -38.839063 -32.288942 -15.790284 30.983678 76.275548 6.457926 16.300779 0.000000 0.000000 0.000000 8.340742 -2.133079 7.952782 -4.054591 -0.627116 -30.688328 0.126482 16.233741 25.793405 3.929854 -11.702144 -32.982545 0.000000 0.000000 0.000000 25.427028 -29.517879 -114.622990 -107.853539 77.690565 -119.764985 -134.504518 7.011856 33.360246 0.000000 0.000000 0.000000 -1.874122 -25.429014 109.844589 -163.343767 36.816638 -76.368277 -111.271258 -5.920956 26.340172 0.000000 0.000000 0.000000 
1.941089 0.896555 0.741896 -178.906446 12.179430 -174.775608 -10.147738 -1.241792 -10.994984 -22.396651 -26.182530 44.953283 66.715978 -8.062984 23.152097 0.000000 0.000000 0.000000 17.109597 -19.330355 -36.052716 -39.071121 -19.243573 36.426218 87.368045 3.251562 18.784214 0.000000 0.000000 0.000000 8.969528 -2.137785 6.718552 -3.922548 -0.534763 -30.519640 0.471558 16.269704 26.503681 1.841260 -14.930865 -32.165497 0.000000 0.000000 0.000000 28.497712 -25.535823 -123.699873 -168.524406 80.552306 165.919933 -138.031256 15.680128 12.663122 0.000000 0.000000 0.000000 -6.275279 -23.902841 121.093961 -158.331338 31.312571 -48.067575 -115.396794 -25.319586 51.236495 0.000000 0.000000 0.000000 
1.949233 0.903656 0.699372 -177.818948 10.274060 -174.523105 -6.213832 -2.963709 -15.311395 -52.897030 -28.927767 61.825417 59.788008 -20.022427 59.154534 0.000000 0.000000 0.000000 13.395988 -16.036395 -30.407929 -38.369868 -22.634780 39.708143 89.466632 5.158932 14.259468 0.000000 0.000000 0.000000 9.739205 -2.455117 6.477635 -3.068683 -0.141463 -30.637357 1.584972 17.612867 27.132663 2.529505 -15.148704 -32.911590 0.000000 0.000000 0.000000 32.062800 -19.675296 -139.159782 141.000657 66.243925 92.995467 -148.850754 28.059769 -25.020325 0.000000 0.000000 0.000000 -12.887302 -23.120770 133.737911 -152.462159 24.927323 -7.430640 -136.745934 -49.197201 105.150321 0.000000 0.000000 0.000000 
1.954613 0.910771 0.658472 -178.128352 7.702662 -174.656358 -2.233477 -7.580034 -22.154175 -89.623447 -25.497348 73.900666 37.978825 -16.437301 95.715614 0.000000 0.000000 0.000000 8.930935 -13.627654 -24.552978 -31.911751 -24.912865 38.583353 92.249707 6.145242 6.372306 0.000000 0.000000 0.000000 9.882815 -2.668344 7.077270 -3.377389 -0.526498 -32.748217 3.518609 18.465736 29.086256 0.500220 -19.420871 -32.292397 0.000000 0.000000 0.000000 31.747366 -8.298335 -167.160391 125.455993 34.155955 41.405329 -174.782800 39.432241 -104.289301 0.000000 0.000000 0.000000 -19.889018 -19.908697 153.849110 -145.472728 9.982984 42.786543 169.779152 -56.454347 -157.786224 0.000000 0.000000 0.000000 
1.957816 0.917780 0.618867 -178.727067 4.430947 -174.189066 4.881626 -14.689056 -29.750506 -109.494800 -28.420280 71.772122 13.966791 -16.466535 123.725758 0.000000 0.000000 0.000000 5.067876 -11.562040 -18.525862 -24.416976 -26.924627 35.374374 91.203903 6.933581 -2.871498 0.000000 0.000000 0.000000 8.515398 -1.961677 6.335296 -2.991809 -0.195978 -31.307414 3.733491 18.343892 28.283277 1.787382 -20.872204 -31.990217 0.000000 0.000000 0.000000 29.189710 1.922503 167.551784 126.039347 5.793933 -3.417779 150.677046 32.675227 160.207635 0.000000 0.000000 0.000000 -24.307103 -12.250802 178.190957 -142.878489 -14.334517 90.672124 137.565870 -34.160023 -66.361582 0.000000 0.000000 0.000000 
1.959619 0.922950 0.579423 -179.412152 4.487054 -173.690870 11.339158 -20.090452 -35.693639 -102.118692 -35.983817 61.864559 -4.606176 -23.531480 138.601950 0.000000 0.000000 0.000000 2.463311 -10.268244 -13.903070 -17.390589 -25.985630 30.243239 95.398924 5.239999 -7.526103 0.000000 0.000000 0.000000 7.044223 -1.608320 7.666130 -3.090969 -0.353886 -32.761249 5.326749 20.307556 28.538845 0.389769 -23.741187 -31.808216 0.000000 0.000000 0.000000 25.831094 7.345785 152.375457 128.041467 -10.801741 -33.205348 138.819719 17.346318 115.165431 0.000000 0.000000 0.000000 -24.967270 -7.241790 -167.355967 -146.614294 -29.509090 116.442161 131.630791 -21.521848 -32.037015 0.000000 0.000000 0.000000 
